<svg width="18" height="24" viewBox="0 0 18 24" fill="none" xmlns="http://www.w3.org/2000/svg">
<path d="M1.83605 6.74199C1.75149 5.54391 2.01723 4.36374 2.72084 3.41452C3.33084 2.554 4.12505 2.08404 5.08233 1.8094C5.88862 1.57018 6.41709 1.86329 6.64962 2.75972C6.9818 4.09991 7.45592 5.44018 7.62805 6.85129C7.68241 7.47252 7.28078 8.35089 6.84593 8.80328C5.75577 9.87655 5.98226 10.6576 6.8097 12.282C7.06638 12.8057 7.47406 13.7111 8.26828 14.9096C9.09571 16.1169 9.53358 16.7649 10.5966 16.2152C11.7773 15.6212 12.638 16.0032 13.5288 16.9621C14.1328 17.6546 14.7971 18.2495 15.4011 18.942C16.2738 19.9718 16.2346 20.6818 15.5521 21.4091C14.323 22.7486 12.2937 23.1913 10.7838 22.2943C9.95033 21.8058 9.11988 21.1664 8.45854 20.4206C5.54441 17.1002 3.44261 13.2388 2.17729 8.88089C1.97496 8.14421 1.88135 7.39872 1.83605 6.74199Z" stroke="white" stroke-width="2" stroke-miterlimit="10"/>
</svg>
